<svg xmlns="http://www.w3.org/2000/svg" xmlns:xlink="http://www.w3.org/1999/xlink" width="500" zoomAndPan="magnify" viewBox="0 0 375 374.999991" height="500" preserveAspectRatio="xMidYMid meet" version="1.0"><defs><clipPath id="22112c6e98"><path d="M 75.265625 165 L 339 165 L 339 170 L 75.265625 170 Z M 75.265625 165 " clip-rule="nonzero"/></clipPath><clipPath id="b0d1abe854"><path d="M 334 157.292969 L 352 157.292969 L 352 177.542969 L 334 177.542969 Z M 334 157.292969 " clip-rule="nonzero"/></clipPath><clipPath id="1887ff4432"><path d="M 68.433594 160.097656 L 81.726562 160.097656 L 81.726562 174.585938 L 68.433594 174.585938 Z M 68.433594 160.097656 " clip-rule="nonzero"/></clipPath><clipPath id="f0af9a16eb"><path d="M 75.078125 160.097656 C 71.410156 160.097656 68.433594 163.339844 68.433594 167.339844 C 68.433594 171.339844 71.410156 174.582031 75.078125 174.582031 C 78.75 174.582031 81.726562 171.339844 81.726562 167.339844 C 81.726562 163.339844 78.75 160.097656 75.078125 160.097656 Z M 75.078125 160.097656 " clip-rule="nonzero"/></clipPath></defs><g clip-path="url(#22112c6e98)"><path fill="#000000" d="M 333.023438 165.898438 C 333.058594 165.894531 333.089844 165.894531 333.125 165.894531 L 336.9375 165.890625 C 337.828125 165.886719 338.550781 166.605469 338.550781 167.488281 C 338.554688 168.375 337.832031 169.089844 336.941406 169.09375 L 333.132812 169.101562 C 332.238281 169.101562 331.515625 168.386719 331.515625 167.5 C 331.515625 166.648438 332.179688 165.953125 333.023438 165.898438 Z M 314.71875 165.925781 C 314.753906 165.925781 314.789062 165.921875 314.824219 165.921875 L 323.972656 165.910156 C 324.867188 165.90625 325.589844 166.625 325.59375 167.507812 C 325.59375 168.394531 324.878906 169.109375 323.980469 169.113281 L 314.828125 169.128906 C 313.9375 169.128906 313.210938 168.414062 313.210938 167.527344 C 313.210938 166.675781 313.875 165.980469 314.71875 165.925781 Z M 296.417969 165.953125 C 296.449219 165.949219 296.484375 165.949219 296.519531 165.949219 L 305.671875 165.933594 C 306.566406 165.933594 307.289062 166.652344 307.289062 167.539062 C 307.289062 168.421875 306.566406 169.136719 305.675781 169.144531 L 296.523438 169.15625 C 295.632812 169.160156 294.910156 168.441406 294.90625 167.554688 C 294.90625 166.707031 295.570312 166.007812 296.417969 165.953125 Z M 278.113281 165.980469 C 278.148438 165.980469 278.183594 165.980469 278.21875 165.976562 L 287.367188 165.964844 C 288.257812 165.960938 288.984375 166.679688 288.984375 167.5625 C 288.984375 168.449219 288.269531 169.167969 287.375 169.167969 L 278.222656 169.183594 C 277.328125 169.183594 276.605469 168.46875 276.601562 167.582031 C 276.601562 166.730469 277.269531 166.035156 278.113281 165.980469 Z M 259.808594 166.007812 C 259.84375 166.007812 259.878906 166.003906 259.914062 166.003906 L 269.0625 165.992188 C 269.957031 165.988281 270.679688 166.707031 270.683594 167.59375 C 270.683594 168.476562 269.957031 169.191406 269.070312 169.199219 L 259.917969 169.210938 C 259.027344 169.210938 258.300781 168.496094 258.296875 167.609375 C 258.296875 166.757812 258.964844 166.0625 259.808594 166.007812 Z M 241.507812 166.035156 C 241.539062 166.035156 241.574219 166.035156 241.609375 166.035156 L 250.761719 166.019531 C 251.652344 166.019531 252.375 166.734375 252.378906 167.617188 C 252.378906 168.503906 251.660156 169.21875 250.765625 169.226562 L 241.613281 169.238281 C 240.722656 169.242188 239.996094 168.523438 239.996094 167.636719 C 239.996094 166.789062 240.664062 166.089844 241.507812 166.035156 Z M 223.203125 166.0625 C 223.234375 166.0625 223.269531 166.058594 223.304688 166.058594 L 232.457031 166.046875 C 233.347656 166.042969 234.070312 166.761719 234.074219 167.648438 C 234.078125 168.53125 233.355469 169.246094 232.460938 169.253906 L 223.308594 169.265625 C 222.417969 169.265625 221.691406 168.550781 221.691406 167.667969 C 221.691406 166.816406 222.359375 166.117188 223.203125 166.0625 Z M 204.898438 166.09375 C 204.929688 166.089844 204.964844 166.089844 205 166.089844 L 214.152344 166.074219 C 215.046875 166.074219 215.769531 166.789062 215.769531 167.675781 C 215.773438 168.5625 215.050781 169.273438 214.15625 169.28125 L 205.003906 169.292969 C 204.113281 169.296875 203.390625 168.578125 203.390625 167.691406 C 203.386719 166.84375 204.054688 166.148438 204.898438 166.09375 Z M 186.59375 166.117188 C 186.628906 166.117188 186.664062 166.117188 186.699219 166.117188 L 195.847656 166.101562 C 196.742188 166.101562 197.464844 166.820312 197.464844 167.703125 C 197.46875 168.589844 196.75 169.300781 195.855469 169.308594 L 186.703125 169.320312 C 185.808594 169.324219 185.085938 168.605469 185.085938 167.722656 C 185.082031 166.871094 185.75 166.171875 186.59375 166.117188 Z M 168.289062 166.148438 C 168.324219 166.144531 168.359375 166.144531 168.394531 166.144531 L 177.546875 166.128906 C 178.4375 166.128906 179.164062 166.84375 179.164062 167.730469 C 179.164062 168.617188 178.445312 169.332031 177.550781 169.335938 L 168.398438 169.351562 C 167.507812 169.351562 166.78125 168.636719 166.78125 167.75 C 166.777344 166.898438 167.445312 166.203125 168.289062 166.148438 Z M 149.988281 166.175781 C 150.019531 166.171875 150.054688 166.171875 150.089844 166.171875 L 159.242188 166.15625 C 160.132812 166.15625 160.855469 166.871094 160.859375 167.757812 C 160.859375 168.644531 160.140625 169.359375 159.246094 169.363281 L 150.09375 169.378906 C 149.203125 169.378906 148.476562 168.664062 148.476562 167.777344 C 148.476562 166.925781 149.144531 166.230469 149.988281 166.175781 Z M 131.683594 166.203125 C 131.71875 166.199219 131.75 166.199219 131.785156 166.199219 L 140.9375 166.183594 C 141.828125 166.183594 142.550781 166.898438 142.554688 167.785156 C 142.558594 168.667969 141.839844 169.390625 140.941406 169.390625 L 131.789062 169.40625 C 130.898438 169.40625 130.171875 168.691406 130.171875 167.804688 C 130.171875 166.953125 130.839844 166.257812 131.683594 166.203125 Z M 113.378906 166.230469 C 113.414062 166.226562 113.445312 166.226562 113.480469 166.226562 L 122.632812 166.210938 C 123.527344 166.210938 124.25 166.925781 124.25 167.8125 C 124.253906 168.699219 123.535156 169.417969 122.636719 169.421875 L 113.488281 169.433594 C 112.59375 169.433594 111.871094 168.71875 111.871094 167.832031 C 111.867188 166.980469 112.535156 166.285156 113.378906 166.230469 Z M 95.074219 166.257812 C 95.109375 166.257812 95.144531 166.253906 95.179688 166.253906 L 104.328125 166.242188 C 105.222656 166.238281 105.945312 166.957031 105.945312 167.839844 C 105.949219 168.726562 105.230469 169.445312 104.335938 169.445312 L 95.183594 169.460938 C 94.289062 169.460938 93.566406 168.746094 93.566406 167.859375 C 93.566406 167.007812 94.230469 166.3125 95.074219 166.257812 Z M 76.769531 166.285156 C 76.804688 166.28125 76.839844 166.28125 76.875 166.28125 L 86.027344 166.265625 C 86.917969 166.265625 87.644531 166.984375 87.644531 167.871094 C 87.644531 168.753906 86.925781 169.472656 86.03125 169.472656 L 76.878906 169.488281 C 75.988281 169.488281 75.265625 168.773438 75.261719 167.886719 C 75.261719 167.035156 75.925781 166.339844 76.769531 166.285156 " fill-opacity="1" fill-rule="nonzero"/></g><g clip-path="url(#b0d1abe854)"><path fill="#000000" d="M 351.023438 166.195312 L 336.859375 158.035156 C 335.679688 157.355469 334.28125 158.480469 334.703125 159.765625 L 337.082031 166.976562 C 337.183594 167.277344 337.183594 167.597656 337.082031 167.898438 L 334.671875 175.097656 C 334.242188 176.382812 335.636719 177.511719 336.816406 176.839844 L 351.015625 168.742188 C 352.007812 168.179688 352.007812 166.761719 351.023438 166.195312 " fill-opacity="1" fill-rule="nonzero"/></g><g clip-path="url(#1887ff4432)"><g clip-path="url(#f0af9a16eb)"><path fill="#000000" d="M 68.433594 160.097656 L 81.726562 160.097656 L 81.726562 174.585938 L 68.433594 174.585938 Z M 68.433594 160.097656 " fill-opacity="1" fill-rule="nonzero"/></g></g></svg>