<svg xmlns="http://www.w3.org/2000/svg" xmlns:xlink="http://www.w3.org/1999/xlink" width="500" zoomAndPan="magnify" viewBox="0 0 375 374.999991" height="500" preserveAspectRatio="xMidYMid meet" version="1.0"><path fill="#ff5757" d="M 223.484375 166.328125 C 223.484375 183.382812 209.6875 197.304688 192.507812 197.304688 C 175.457031 197.304688 161.535156 183.339844 161.535156 166.328125 C 161.535156 149.234375 175.414062 135.351562 192.507812 135.351562 C 209.605469 135.351562 223.484375 149.234375 223.484375 166.328125 Z M 206.144531 96.46875 C 199.800781 95.234375 193.292969 94.863281 186.824219 95.398438 C 156.878906 97.785156 131.257812 118.917969 123.640625 148.410156 C 122.113281 154.257812 121.375 160.273438 121.375 166.328125 C 121.375 183.875 127.757812 200.640625 139.457031 213.695312 L 139.660156 213.902344 L 192.550781 266.792969 L 245.644531 213.699219 C 257.300781 200.640625 263.726562 183.835938 263.726562 166.328125 C 263.726562 160.273438 262.988281 154.257812 261.464844 148.410156 C 254.5 121.554688 232.671875 101.617188 206.183594 96.46875 Z M 206.144531 96.46875 " fill-opacity="1" fill-rule="evenodd"/><path fill="#000000" d="M 70.421875 134.609375 C 83.890625 82.628906 128.953125 44.855469 182.460938 40.574219 C 193.867188 39.667969 205.402344 40.285156 216.648438 42.507812 C 264.222656 51.777344 302.449219 87.613281 314.640625 134.609375 C 317.316406 144.949219 318.675781 155.617188 318.675781 166.328125 C 318.675781 197.304688 307.308594 227 286.796875 250.152344 L 285.476562 251.632812 L 231.394531 305.71875 L 300.675781 375 L 357.519531 375 L 288.238281 305.71875 L 314.765625 279.191406 L 316.863281 276.800781 C 343.84375 246.277344 358.835938 207.105469 358.835938 166.328125 C 358.835938 152.242188 357.023438 138.152344 353.523438 124.519531 C 337.460938 62.570312 287.125 15.28125 224.308594 3.046875 C 215.042969 1.234375 205.648438 0.246094 196.21875 0.0429688 C 193.25 -0.0429688 190.246094 0 187.277344 0.0820312 L 187.238281 0.0820312 C 187.074219 0.0820312 186.90625 0.0820312 186.742188 0.0820312 L 186.703125 0.0820312 C 186.496094 0.0820312 186.25 0.0820312 186.042969 0.125 L 185.917969 0.125 C 185.917969 0.125 185.878906 0.125 185.878906 0.125 L 185.835938 0.125 C 183.613281 0.207031 181.429688 0.328125 179.207031 0.535156 C 108.644531 6.179688 49.25 55.976562 31.453125 124.519531 C 27.910156 138.152344 26.140625 152.242188 26.140625 166.328125 L 26.140625 375 C 91.714844 375 157.292969 375 222.910156 375 C 181.800781 333.933594 140.734375 292.824219 99.625 251.714844 L 98.390625 250.355469 C 77.710938 227.207031 66.34375 197.386719 66.34375 166.328125 C 66.34375 155.617188 67.703125 144.949219 70.378906 134.609375 Z M 70.421875 134.609375 " fill-opacity="1" fill-rule="evenodd"/></svg>